<?xml version="1.0" encoding="utf-8"?>
<!-- Generator: Adobe Illustrator 15.0.0, SVG Export Plug-In  -->
<!DOCTYPE svg PUBLIC "-//W3C//DTD SVG 1.1//EN" "http://www.w3.org/Graphics/SVG/1.1/DTD/svg11.dtd" [
	<!ENTITY ns_flows "http://ns.adobe.com/Flows/1.0/">
]>
<svg version="1.1"
	 xmlns="http://www.w3.org/2000/svg" xmlns:xlink="http://www.w3.org/1999/xlink" xmlns:a="http://ns.adobe.com/AdobeSVGViewerExtensions/3.0/"
	 x="0px" y="0px" width="96px" height="96px" viewBox="0 0 96 96" overflow="visible" enable-background="new 0 0 96 96"
	 xml:space="preserve">
<defs>
</defs>
<rect id="BOUNDING_BOX_1_" fill="none" width="96" height="96"/>
<path id="SHADOW_1_" opacity="0.4" d="M88.023,49c0,29.633-10.364,40-40,40c-29.635,0-40-10.367-40-40c0-29.634,10.366-40,40-40
	C77.659,9,88.023,19.365,88.023,49z"/>
<linearGradient id="RED_x2F_ORANGE_1_3_" gradientUnits="userSpaceOnUse" x1="16.8906" y1="79.1045" x2="79.112" y2="16.8831">
	<stop  offset="0" style="stop-color:#291C1C"/>
	<stop  offset="0.0575" style="stop-color:#423534"/>
	<stop  offset="0.1718" style="stop-color:#7D706C"/>
	<stop  offset="0.2813" style="stop-color:#856B5C"/>
	<stop  offset="0.4073" style="stop-color:#8A6852"/>
	<stop  offset="0.5644" style="stop-color:#8C674F"/>
	<stop  offset="1" style="stop-color:#61585C"/>
</linearGradient>
<path id="RED_x2F_ORANGE_1_2_" fill="url(#RED_x2F_ORANGE_1_3_)" d="M8,47.988c0,29.634,10.365,40.001,40,40.001
	c29.637,0,40-10.367,40-40.001c0-28.984-9.926-39.529-38.091-39.978h-3.817C17.928,8.459,8,19.004,8,47.988z"/>
<path id="HIGHLIGHTS_RO1_2_" opacity="0.25" fill="#7D706C" d="M48,8C18.365,8,8,18.365,8,48c0,29.633,10.365,40,40,40
	c29.637,0,40-10.367,40-40C88,18.365,77.637,8,48,8z M48,87.023C18.842,87.023,9,77.176,9,48S18.842,8.977,48,8.977S87,18.824,87,48
	S77.158,87.023,48,87.023z"/>
<path opacity="0.05" fill-rule="evenodd" clip-rule="evenodd" d="M78.22,37.724c-1.577-9.184-7.876-16.108-14.651-16.108
	c-0.572,0-1.147,0.049-1.709,0.146c-1.675,0.287-3.294,1.027-4.704,2.146c-0.374-0.214-0.803-0.329-1.24-0.329
	c-0.56,0-1.088,0.181-1.528,0.522L26.68,45.495c-0.359,0.278-0.633,0.649-0.797,1.07c-0.492,0.014-0.964,0.17-1.371,0.456
	l-6.047,4.261c-0.955,0.678-1.313,1.904-0.871,2.984l3.741,9.176c0.385,0.946,1.293,1.558,2.314,1.558
	c0.068,0,0.346-0.021,0.401-0.034l7.298-1.182c0.403-0.064,0.781-0.226,1.102-0.466L43.8,75.584c0.471,0.509,1.14,0.801,1.834,0.801
	c0.628,0,1.23-0.235,1.697-0.664l5.23-4.836c0.48-0.446,0.764-1.061,0.797-1.736c0.024-0.661-0.211-1.297-0.664-1.793l-5.638-6.094
	l16.004-2.523c0.464-0.074,0.898-0.279,1.25-0.585c0.699,0.145,1.405,0.218,2.102,0.218c0.562,0,1.136-0.048,1.707-0.144
	C75.409,56.974,79.94,47.776,78.22,37.724z"/>
<path opacity="0.07" fill-rule="evenodd" clip-rule="evenodd" d="M77.727,37.808c-1.536-8.946-7.623-15.693-14.158-15.693
	c-0.542,0-1.089,0.046-1.624,0.139c-1.713,0.294-3.35,1.078-4.762,2.277c-0.355-0.294-0.799-0.454-1.268-0.454
	c-0.447,0-0.87,0.145-1.223,0.418L26.986,45.89c-0.387,0.3-0.644,0.729-0.736,1.196c-0.099-0.015-0.198-0.022-0.297-0.022
	c-0.414,0-0.812,0.126-1.152,0.365l-6.046,4.26c-0.765,0.542-1.051,1.523-0.697,2.388l3.741,9.176
	c0.308,0.757,1.035,1.246,1.851,1.246c0.059,0,0.293-0.021,0.321-0.027l7.298-1.182c0.479-0.077,0.904-0.319,1.208-0.68
	l11.69,12.634c0.377,0.407,0.912,0.641,1.467,0.641c0.503,0,0.984-0.188,1.357-0.531l5.229-4.835c0.385-0.357,0.61-0.85,0.637-1.389
	c0.02-0.529-0.169-1.038-0.531-1.435l-6.274-6.781l16.928-2.67c0.458-0.073,0.869-0.3,1.173-0.638
	c0.751,0.176,1.509,0.265,2.258,0.265c0.535,0,1.08-0.046,1.622-0.137C75.054,56.527,79.401,47.588,77.727,37.808z"/>
<path opacity="0.1" fill-rule="evenodd" clip-rule="evenodd" d="M77.233,37.893c-1.495-8.709-7.37-15.277-13.665-15.277
	c-0.513,0-1.03,0.044-1.539,0.131c-1.781,0.306-3.453,1.158-4.878,2.481c-0.051-0.074-0.108-0.143-0.174-0.208
	c-0.282-0.285-0.66-0.442-1.062-0.442c-0.335,0-0.652,0.108-0.917,0.313L27.292,46.286c-0.461,0.357-0.668,0.948-0.548,1.505
	c-0.116-0.072-0.243-0.128-0.378-0.168c-0.136-0.039-0.275-0.058-0.414-0.058c-0.31,0-0.609,0.095-0.864,0.274l-6.045,4.26
	c-0.574,0.406-0.789,1.143-0.523,1.791l3.741,9.176c0.231,0.567,0.776,0.935,1.388,0.935c0.042,0,0.21-0.015,0.241-0.021
	l7.299-1.182c0.455-0.073,0.844-0.345,1.067-0.744c0.062-0.11,0.11-0.227,0.142-0.346c0.062,0.12,0.14,0.232,0.233,0.334
	l11.902,12.863c0.283,0.306,0.685,0.48,1.101,0.48c0.377,0,0.739-0.142,1.018-0.398l5.228-4.833c0.289-0.27,0.458-0.639,0.478-1.042
	c0.015-0.397-0.127-0.779-0.398-1.076l-6.91-7.469l17.853-2.816c0.448-0.071,0.827-0.337,1.051-0.709
	c0.814,0.219,1.64,0.33,2.458,0.33c0.51,0,1.026-0.044,1.537-0.13C74.697,56.081,78.862,47.401,77.233,37.893z"/>
<path opacity="0.15" fill-rule="evenodd" clip-rule="evenodd" d="M26.878,48.686c-0.116-0.283-0.351-0.495-0.648-0.583
	c-0.091-0.026-0.185-0.039-0.277-0.039c-0.207,0-0.406,0.063-0.576,0.183l-6.044,4.259c-0.382,0.271-0.526,0.762-0.349,1.194
	l3.741,9.176c0.154,0.379,0.518,0.623,0.925,0.623c0.027,0,0.134-0.009,0.161-0.014l7.299-1.182
	c0.302-0.049,0.562-0.229,0.711-0.496c0.151-0.268,0.17-0.584,0.054-0.867L26.878,48.686z M76.74,37.977
	c-1.454-8.473-7.116-14.862-13.172-14.862c-0.483,0-0.973,0.042-1.454,0.124c-2.004,0.344-3.77,1.387-5.205,2.938
	c0.029-0.29-0.068-0.588-0.286-0.806c-0.188-0.19-0.44-0.294-0.708-0.294c-0.224,0-0.435,0.072-0.611,0.209L27.599,46.681
	c-0.354,0.274-0.483,0.754-0.314,1.169l5.522,13.547c0.045,0.112,0.11,0.214,0.192,0.304L44.9,74.564
	c0.188,0.203,0.456,0.32,0.734,0.32c0.252,0,0.493-0.095,0.679-0.266l5.226-4.831c0.193-0.181,0.307-0.426,0.319-0.695
	c0.01-0.266-0.085-0.521-0.266-0.718l-7.545-8.156l18.778-2.963c0.431-0.068,0.76-0.403,0.829-0.824
	c0.9,0.288,1.824,0.439,2.758,0.439c0.485,0,0.974-0.042,1.452-0.123C74.342,55.635,78.323,47.214,76.74,37.977z M53.611,44.886
	c-1.565-3.979-1.23-7.876-0.332-11.038c-0.486,2.512-0.53,5.296-0.04,8.159c0.409,2.382,1.15,4.599,2.139,6.556
	C54.762,47.508,54.164,46.291,53.611,44.886z M61.573,35.438c0.573-1.069,1.384-1.738,2.312-1.897
	c0.145-0.025,0.289-0.037,0.434-0.037c0.911,0,1.832,0.498,2.626,1.325c-0.754-0.686-1.624-1.084-2.517-1.084
	c-0.174,0-0.348,0.015-0.521,0.044C62.964,33.952,62.157,34.527,61.573,35.438z M64.752,40.032c0.064,0.377-0.021,0.662-0.122,0.803
	c-0.054,0.075-0.105,0.102-0.111,0.111c-0.118-0.032-0.402-0.286-0.488-0.789c-0.048-0.276-0.018-0.558,0.081-0.755
	c0.052-0.105,0.113-0.158,0.131-0.161l0.006-0.5v0.5C64.35,39.241,64.658,39.485,64.752,40.032z M66.098,46.444
	c-0.145,0.025-0.29,0.037-0.435,0.037c-0.804,0-1.615-0.388-2.341-1.047c0.675,0.518,1.425,0.812,2.191,0.812
	c0.174,0,0.348-0.015,0.52-0.044c1.162-0.199,2.116-1.023,2.704-2.332C68.207,45.265,67.278,46.241,66.098,46.444z"/>
<path opacity="0.15" fill-rule="evenodd" clip-rule="evenodd" d="M64.428,34.246c-0.146,0-0.291,0.012-0.437,0.037
	c-1.042,0.179-1.897,0.97-2.408,2.227c-0.479,1.176-0.602,2.642-0.347,4.126c0.499,2.913,2.337,5.11,4.277,5.11
	c0.146,0,0.291-0.012,0.436-0.037c1.044-0.179,1.899-0.97,2.41-2.227c0.478-1.176,0.601-2.642,0.347-4.126
	C68.206,36.442,66.367,34.246,64.428,34.246z M64.536,41.45c-0.381,0-0.871-0.462-0.999-1.208c-0.065-0.382-0.02-0.769,0.126-1.062
	c0.07-0.142,0.229-0.386,0.497-0.432c0.029-0.005,0.059-0.007,0.088-0.007c0.388,0,0.867,0.452,0.997,1.207
	C65.37,40.679,65.085,41.363,64.536,41.45z M62.754,55.775c-0.059-0.011-5.847-1.146-9.607-10.706
	c-3.773-9.59,3.094-18.595,3.163-18.685c0.154-0.199,0.138-0.482-0.041-0.66c-0.097-0.097-0.225-0.147-0.354-0.147
	c-0.107,0-0.215,0.034-0.306,0.104L27.904,47.077c-0.178,0.137-0.242,0.376-0.157,0.584L33.27,61.21
	c0.022,0.056,0.055,0.107,0.096,0.151l11.901,12.863c0.099,0.106,0.233,0.16,0.367,0.16c0.122,0,0.243-0.044,0.339-0.133l5.224-4.83
	c0.097-0.09,0.154-0.215,0.16-0.348c0.005-0.133-0.043-0.262-0.133-0.359l-8.181-8.844l19.703-3.109
	c0.241-0.038,0.418-0.245,0.421-0.489C63.169,56.028,62.994,55.818,62.754,55.775z M26.416,48.875
	c-0.058-0.141-0.176-0.248-0.322-0.291c-0.046-0.013-0.094-0.02-0.141-0.02c-0.102,0-0.203,0.031-0.288,0.091l-6.043,4.259
	c-0.19,0.135-0.263,0.383-0.175,0.598l3.741,9.176c0.078,0.19,0.262,0.312,0.462,0.312c0.027,0,0.054-0.002,0.081-0.007l7.299-1.182
	c0.15-0.024,0.281-0.115,0.356-0.248s0.084-0.293,0.027-0.434L26.416,48.875z M76.247,38.062
	c-1.413-8.236-6.864-14.446-12.679-14.446c-0.458,0-0.918,0.04-1.369,0.117c-6.206,1.064-10.004,9.225-8.467,18.191
	c1.413,8.237,6.863,14.448,12.679,14.448c0.457,0,0.917-0.039,1.367-0.116C73.985,55.188,77.784,47.027,76.247,38.062z
	 M66.182,46.937c-0.173,0.029-0.346,0.044-0.518,0.044h-0.001c-2.352,0-4.66-2.725-5.256-6.203c-0.324-1.885-0.13-3.738,0.548-5.219
	c0.647-1.416,1.658-2.308,2.845-2.511c0.173-0.03,0.346-0.044,0.519-0.044c2.351,0,4.659,2.724,5.254,6.201
	C70.229,43.035,68.708,46.503,66.182,46.937z"/>
<path fill-rule="evenodd" clip-rule="evenodd" fill="#FFFFFF" d="M23.65,61.499l7.299-1.182l-4.997-12.253l-6.043,4.259
	L23.65,61.499z M55.915,25.078L28.21,46.473l5.523,13.549l11.901,12.863l5.224-4.83l-8.817-9.531l20.627-3.256
	c0,0-6.06-1.032-9.986-11.015C48.754,34.272,55.915,25.078,55.915,25.078z M62.284,23.225c5.946-1.02,11.976,5.214,13.47,13.921
	c1.493,8.708-2.114,16.594-8.061,17.616c-5.945,1.019-11.975-5.215-13.468-13.923C52.732,32.13,56.341,24.244,62.284,23.225
	 M63.715,31.556c-2.8,0.48-4.506,4.207-3.801,8.308c0.702,4.1,3.552,7.046,6.352,6.566c2.801-0.481,4.503-4.208,3.8-8.309
	C69.363,34.021,66.514,31.075,63.715,31.556L63.715,31.556z M64.076,33.775c-1.79,0.307-2.842,2.894-2.347,5.775
	c0.493,2.883,2.348,4.972,4.136,4.665c1.792-0.307,2.842-2.894,2.348-5.776S65.866,33.469,64.076,33.775z M64.707,40.935
	c-0.743,0.127-1.488-0.593-1.663-1.608c-0.174-1.016,0.288-1.944,1.031-2.071c0.745-0.128,1.488,0.593,1.663,1.608
	C65.911,39.88,65.452,40.808,64.707,40.935z"/>
</svg>
